<?xml version="1.0" encoding="UTF-8"?>
<svg version="1.1" viewBox="0 0 1920 1080" width="480" height="270" xmlns="http://www.w3.org/2000/svg">
<path transform="translate(947,70)" d="m0 0h3l-2 5-12 16-22 30-12 19-15 24-10 17-9 16-6 13 1 1 11-13 10-13 12-14 12-13 18-18 8-7 28-22 11-8 15-10h7l23 13 15 9 21 12 52 30 41 24 26 15 21 12 24 14 56 32 15 9 23 13 14 8 17 10 11 8 1 3-56-5-41-3-19-1h-36l-19 2 5 2 63 11 28 7 27 9 21 8 20 9 12 7 3 3 1 3 1 16v403h-4l-10-21-13-30-17-34-26-46-8-12-3-2 13 34 11 34 7 30 4 22 3 19 1 19v15l-11 8-18 10-24 14-21 12-26 15-28 16-27 16-23 13-78 45-53 31-22 13-23 13-12 7h-2l2-5 11-16 10-13 12-17 9-14 13-21 17-28 7-14 6-11-1-1-10 11-9 11-14 17-11 12-15 15-8 7-10 9-9 7-13 10-15 11-13 8-7-1-20-11-27-16-18-10-24-14-28-16-25-15-23-13-24-14-21-12-26-15-17-10-21-12-24-14-28-16-26-15-10-6v-2l30 2 34 3 27 1 14 1h40l15-1-12-4-37-7-25-6-25-8-25-9-27-12-14-8-1-4-1-422 4 2 10 21 15 33 12 25 14 27 11 19 8 12 5 6-3-11-6-15-12-36-6-22-7-36-3-27-1-13v-10l6-5 25-14 24-14 25-14 20-12 78-45 24-14 26-15 24-14 27-15 56-33 21-12zm99 253-24 9-24 10-25 12-26 14-21 13-17 12-7 5-5-1-25-14-17-10-28-16-16-8-4 9-4 24-4 36-1 20v40l1 22 2 13-2 4-21 12-25 14-27 16-14 9 2 4 12 11 11 9 19 14 13 9 17 11 22 13 23 12 19 10 2 5v66l1 32 12-3 28-10 20-9 30-15 25-15 25-17 7-5 7 1 23 13 27 16 33 18h3l3-9 4-22 4-35 1-23v-40l-1-24-1-12 5-5 16-9 42-24 20-12 4-3-1-4-8-7-12-11-16-12-17-12-15-10-16-10-28-15-23-11h-2l-1-105z" fill="#0B2E4E"/>
<path transform="translate(988,93)" d="m0 0h7l23 13 15 9 21 12 52 30 41 24 26 15 21 12 24 14 56 32 15 9 23 13 14 8 17 10 11 8 1 3-6-2v-2l-5-3-12-2-3-2-21-6-26-6-18-3-19-4-45-7-14-2-8-3-9-5-24-14-49-28-18-11-11-6-16-10-6-3-22-13-16-8-7-1-3 5 2 6 4 2v2l7 2v2h3v2l5 2 12 7 11 6 27 16 10 6 11 6 17 10 18 11 5 4v5l-3 2-52 1-42 3-44 6-9 2-15 3-6 1-26 6-24 6-18 6-13 4-12 5-25 10-9 4h-3v2l-12 4-8 5-9 5-7-1-2-2 1-6 13-25 6-9 13-23 8-13 10-15 6-8 1-3h2l2-5 12-22 1 3-3 6 1 1 11-13 10-13 12-14 12-13 18-18 8-7 28-22 11-8z" fill="#164D83"/>
<path transform="translate(1073,294)" d="m0 0h47l52 2h19v1l-7 1 5 2 63 11 28 7 27 9 21 8 20 9 12 7 3 3 1 3 1 16v403h-4l2-1-1-3 1-3-2-1v-3h-2l-1-7-2-15-1-7-3-9-4-16-4-12-2-9-3-9-5-11-5-15-14-36-5-12-1-16v-164l-1-27-5-5-8-2-1 12-1 141-2 10-4-1-6-8-9-16-8-13-6-10-7-11-4-6v-2h-2l-5-8v-2h-2l-5-8-8-11-1-4h-2l-6-7v-2h-2l-2-4-5-5-9-11-9-10-7-8-4-5-19-19-8-7-14-12-8-7-13-10-8-7-10-8-11-8-18-11-5-4-5-3-5-4v-6l5-3z" fill="#1F68B0"/>
<path transform="translate(947,70)" d="m0 0h3l-2 5-5 5-10 1v2l-7 5h-3l-2 5-5 5h-2l-2 5-6 5-6 7-16 16h-2v3l-5 5-7 8-1 2h-2l-3 6h-2l-1 3h-2l-2 5-7 8-5 6-4 6-13 16-9 8-4 1v2l-14 7-8 5-14 8-12 7-31 17-12 7-9 5-16 8-5 4-6 3-13 7h-3v2l-12 6-12 9h-2v2h-2v7l3 7 1 2 5-1 16-8 15-9 13-8 10-6 12-6 9-6 6-3 11-7 7-4h3v-2l11-6 10-6 9-4 5 1-1 7-7 14-5 8-10 19-6 11-5 10-8 17-12 27-6 16-5 14-3 9-7 23-4 13-5 20-6 31-4 24-2 20-2 19-2 23-2 3-5-1-8-13-12-19-10-19-9-16-16-32-10-16-4-6 1-2 2 2-3-11-6-15-12-36-6-22-7-36-3-27-1-13v-10l6-5 25-14 24-14 25-14 20-12 78-45 24-14 26-15 24-14 27-15 56-33 21-12z" fill="#164D83"/>
<path transform="translate(1216,508)" d="m0 0 4 2 6 9 9 16 8 13 13 24 8 15 8 16 10 19 5 8-1 2-2-1 13 34 11 34 7 30 4 22 3 19 1 19v15l-11 8-18 10-24 14-21 12-26 15-28 16-27 16-23 13-78 45-53 31-22 13-12 7-2-1 2-4 12-4v-5l3-1h3v-2l3-2h5l2-4 4-2 2-2v-2h5l2-4 2-3-4 1 1-5 8-10 4-9 3-1 1-3 5-5 7-9 1-3 2-1 3-5h2v-3l5-5 7-10 4-5 1-2h2l2-4 8-7 10-6 9-6 11-6 5-3h3l1-3h3v-2l7-3 5-3 1-2 7-3 12-8 14-7h2v-2l13-7 20-12h3v-2l12-6 9-5 11-7 9-6h3l1-4v-7l-2-6-13 5-9 6-8 4-10 6-6 3-12 7-11 6-18 11-12 6-11 7-9 5-11 6-3 2-7 1-2-5 9-16 9-17 4-8 9-16 11-23 9-20 4-11 6-18 3-7 1-4 5-15 4-13 2-7 3-9 2-11 2-6 2-12 2-6 3-17 1-2 3-24 1-5 2-32 1-5 1-14 4-9z" fill="#164D83"/>
<path transform="translate(1108,755)" d="m0 0 5 2-1 6-8 16-13 22-6 11-12 19-11 16-8 12-8 13-2 5h-3l-10 11-9 11-14 17-11 12-15 15-8 7-10 9-9 7-13 10-15 11-13 8-7-1-20-11-27-16-18-10-24-14-28-16-25-15-23-13-24-14-21-12-26-15-8-5 1-2 5 1 5 3 7 1v3l8-3 5 1-6-12v-4l4 1 2-8 1-2 3 1v-2l8-3 14 1 26 13 9 5 12 6v2l6 2 17 10 11 6 11 7 11 6 10 6 11 6 9 5 8 5 7 4 24 14 4 2h10v-2h2v-2l5-5-1-5-10-6-17-10-13-8-11-6-13-7-18-11-10-6-11-6-8-5-15-9-4-3v-5l16-2h18l35-2 24-2 33-5 23-4 19-4 10-2 8-3 13-3 17-5 18-6 13-5 9-4 8-3 4-2 20-8 10-5 13-5 9-4z" fill="#164D83"/>
<path transform="translate(616,542)" d="m0 0 4 2 4 6v3h2l8 13 8 12v2h2l5 9v2h2l6 11 8 10 1 4h2l6 9 7 9v2l3 1 8 11 9 11 2 4h2l9 11 5 6 5 5 5 4 7 8 5 4 6 7 4 3v2l3 1v2l4 2 7 6v2l4 2 10 8 11 9 11 8v2l4 1v2h3v2l5 2 12 8 12 9 3 1 7 7v3l-10 2h-51l-40-2-11-1h-16l-9 2h-20v-1l15-1-12-4-37-7-25-6-25-8-22-8 3-1 9 2 4 1 2-1 9 1 3-2-3-10-5-10-3-8-2-10-1-4 1-9 2-2 7-1 2-2 1-12-1-111v-22l1-11z" fill="#164D83"/>
<path transform="translate(955,150)" d="m0 0h13v3l5 1 4 2 3 7 1 11h2v2l5 2 6 5 8 4 11 6 9 5 11 6 13 8 5 2v2l4 1 11 6 10 6 11 6 16 9 3 2 1 5-3 2-41 1-25 2-35 4-17 3-24 4-25 5-21 5-5 2-17 3-23 6-19 7-13 4-9 3-8 4-6 5-3 2h-3v-7h2l1-4 3-3 2-5h2l2-5 7-12 7-11 8-16 4-6 5-7 3-5 4-8 1-6-2-5 2-2h2l11-13 10-13 12-14 12-13 4-3-1 4-7 8-3 6 2 3h2v-2l6-4 1-2 4-1 9-2 4-1 1-2 4-1 1-4 5-1 13-5z" fill="#1E68AF"/>
<path transform="translate(1217,516)" d="m0 0h2v2l3 1 11 20 8 13 4 8v3h2l12 23 7 14 4 12 3 3 1 5 3 1 7 7 3 2-1 2-2-1 13 34 11 34 3 13h-2l-3-11v8l-5 1-3-6v-2l-3-1-1-2-2 3-4 4 1 6-4 6-5 2v2h-2l-1 3h-2l-2 6-4 5-4 1v-3l-7 3-15 3-10 7-10 8-9 3-7 5-10 4-19 10-11 5-7-1-3-1-1-7 1-5 6-18 6-16 8-21 7-21 7-25 4-13 4-17 5-23 7-43 3-27 2-26z" fill="#1E68B0"/>
<path transform="translate(882,453)" d="m0 0h40l5 5 14 25 10 17 16 28 11 18 2 4h2l1-91 2-6h30l8 1 1 1v162l-1 1h-42l-5-6-32-56-13-22-8-12-2-1v70l-1 26-1 1h-38l-1-2-1-24v-107l1-30z" fill="#0B3051"/>
<path transform="translate(1018,141)" d="m0 0h25l12 2 2-1v2l5 2 1-2 3 1v-2h2v-2l11 3 2 2 1-3 27 16 14 8 24 14 26 15 21 12 24 14 56 32 15 9 4 3 1 5-2 3-12-5-11-1-8-1-3 1-6-2h-11l-52-7-12-4-17-10-22-12v-2l-5-1-10-6-12-7-4-3-3-1v-2l-4-1-10-5v-2l-5-2-7-4v-2l-5-1-5-4-10-6-12-7-8-6-7-5-3-1-2-3-3-1v-2l-6-2-5-6 1-4z" fill="#1E68AF"/>
<path transform="translate(538,309)" d="m0 0 4 2v8l3 7-3 6 1 8-1 4v33l2 1 2 8 1 10 2 1-1 7h2l2 5 1 8 3 3 1 6 3 1 7 12 7 11 2 5 7 12 5 11 3 16v26l-1 20-1 21-1 26-2 48-3 9h-2l-2-3-6-2-7-14-1-9-2-7-1-1v-8l-3-9-2-4v-10l-5-5-3-2-3 10-1 55v8l-1 10-1 1-1 48v34l-2-1-1-4z" fill="#164D83"/>
<path transform="translate(1073,294)" d="m0 0h47l52 2h19v1l-7 1 1 3-5 1h-17l-31-2-52-1-12 1 2 7 22 15 8 6 6 4v2l4 2 12 10 13 10 11 10 2 1v2l4 2v2l4 2 8 8 6 5v2h2l7 8 13 13 5 7 5 5 18 22 11 14 13 18 7 11 10 15 7 11 6 11 8 13 5-1 1-16v-113l1-19 4-4 10 2 9 6 2 6 2 7v143l2 41 2 12 3 9 4 9 4 6 2 1v2l3-1 2-6h3l1 8h2l2 7 3 3v2h2v2l3 1v5l3 6 2 8v8l-1 5v35h2l-1 6h2l2 41v10l-2-1v-3h-2l-1-7-2-15-1-7-3-9-4-16-4-12-2-9-3-9-5-11-5-15-14-36-5-12-1-16v-164l-1-27-5-5-8-2-1 12-1 141-2 10-4-1-6-8-9-16-8-13-6-10-7-11-4-6v-2h-2l-5-8v-2h-2l-5-8-8-11-1-4h-2l-6-7v-2h-2l-2-4-5-5-9-11-9-10-7-8-4-5-19-19-8-7-14-12-8-7-13-10-8-7-10-8-11-8-18-11-5-4-5-3-5-4v-6l5-3z" fill="#164D83"/>
<path transform="translate(538,309)" d="m0 0 3 1v87l1 307v32l-2-1-1-4z" fill="#1E67AE"/>
<path transform="translate(1093,772)" d="m0 0h2v5h-2l-1 4-9 10-4 4-8 3-7 4h-14l-2-4 3-5 12-7h3v-2l8-3 8-5h5v-2z" fill="#1E68B0"/>
<path transform="translate(933,966)" d="m0 0h5l-1 3h-2l-1 5-1 2h-2v2h-2v2h-2v2l-3 2h-3v2l-8 3h-10l-1-5-2-2 2-6 9-1 15-5z" fill="#0B2E4E"/>
<path transform="translate(540,311)" d="m0 0h2v8l3 7-3 6 1 8-1 4v26l-2 1z" fill="#164D83"/>
<path transform="translate(538,309)" d="m0 0 3 1-1 87h-1z" fill="#296FB4"/>
<path transform="translate(945,124)" d="m0 0 2 1-6 5-12 12-5 4-5 5-4 3-2-1 13-13 8-7z" fill="#3779B8"/>
<path transform="translate(633,835)" d="m0 0 6 1 6 3v2l6 1 9 5 2 3h-4l-20-11z" fill="#1D568F"/>
<path transform="translate(1008,913)" d="m0 0 2 1-14 15-12 12v-3l14-14 7-8z" fill="#3477B7"/>
<path transform="translate(947,70)" d="m0 0h3l-2 5-5 5-5-1-1-3z" fill="#265D91"/>
<path transform="translate(1094,153)" d="m0 0 10 3 8 5 1 3-5-1-5-4-4-1-2-1v-2l-3-1z" fill="#215B93"/>
<path transform="translate(606,419)" d="m0 0 3 4 4 10 3 8 2 6v5l-2-3-7-19-3-8z" fill="#266DB3"/>
<path transform="translate(540,311)" d="m0 0h2v8l3 7-3 5h-2z" fill="#154C81"/>
<path transform="translate(985,453)" d="m0 0h30v1l-31 2z" fill="#1C61A5"/>
<path transform="translate(935,77)" d="m0 0 4 1-1 2-5 1v2l-5 3-4-2 5-4z" fill="#1B5389"/>
<path transform="translate(1319,758)" d="m0 0h1l2 12v15h-1l-2-14z" fill="#2D72B5"/>
<path transform="translate(945,124)" d="m0 0 2 1-6 5-12 12-2-1 8-9z" fill="#3E7BB8"/>
<path transform="translate(1041,873)" d="m0 0 3 1-1 3h-2l-10 11-1-2 9-11z" fill="#1E68B0"/>
<path transform="translate(990,995)" d="m0 0 4 1-14 8-2-1 2-4 9-3z" fill="#185591"/>
<path transform="translate(1313,724)" d="m0 0h1l3 15v5l-2-4-2-5z" fill="#256DB2"/>
<path transform="translate(1344,296)" d="m0 0 5 2 6 5v2l-6-2v-2l-5-3z" fill="#1A5B9B"/>
<path transform="translate(954,1017)" d="m0 0" fill="#FEFEFE"/>
</svg>
